<svg width="40" height="40" viewBox="0 0 40 40" fill="none" xmlns="http://www.w3.org/2000/svg">
<circle cx="20" cy="20" r="19.8" fill="white" stroke="#BBBBBB" stroke-width="0.4"/>
<path d="M26.4517 24.4604C26.21 25.0191 25.9238 25.5332 25.5921 26.0061C25.1401 26.6505 24.77 27.0966 24.4847 27.3444C24.0426 27.751 23.5688 27.9592 23.0615 27.971C22.6974 27.971 22.2582 27.8675 21.7469 27.6572C21.234 27.4479 20.7626 27.3444 20.3316 27.3444C19.8796 27.3444 19.3948 27.4479 18.8763 27.6572C18.3569 27.8675 17.9385 27.977 17.6187 27.9879C17.1322 28.0085 16.6473 27.7943 16.1633 27.3444C15.8544 27.0749 15.468 26.6129 15.0051 25.9587C14.5085 25.2599 14.1002 24.4496 13.7803 23.5258C13.4377 22.528 13.266 21.5617 13.266 20.6263C13.266 19.5548 13.4975 18.6306 13.9613 17.8561C14.3258 17.234 14.8107 16.7433 15.4176 16.3831C16.0244 16.0228 16.6802 15.8393 17.3863 15.8275C17.7727 15.8275 18.2794 15.947 18.9091 16.1819C19.537 16.4176 19.9402 16.5371 20.117 16.5371C20.2491 16.5371 20.697 16.3974 21.4563 16.1188C22.1743 15.8604 22.7803 15.7534 23.2767 15.7955C24.6219 15.9041 25.6326 16.4344 26.3046 17.3898C25.1016 18.1187 24.5065 19.1397 24.5183 20.4495C24.5291 21.4698 24.8993 22.3187 25.6267 22.9928C25.9562 23.3057 26.3244 23.5475 26.734 23.7192C26.6453 23.9768 26.5514 24.2236 26.4517 24.4604ZM23.3665 12.3199C23.3665 13.1195 23.0744 13.8661 22.4921 14.5572C21.7894 15.3787 20.9394 15.8535 20.0177 15.7786C20.0059 15.6826 19.9991 15.5817 19.9991 15.4756C19.9991 14.7079 20.3333 13.8864 20.9268 13.2147C21.223 12.8745 21.5999 12.5918 22.0568 12.3662C22.5128 12.1439 22.9441 12.021 23.3497 12C23.3616 12.1069 23.3665 12.2138 23.3665 12.3199V12.3199Z" fill="#0E0E0E"/>
</svg>
