<svg width="16" height="16" viewBox="0 0 16 16" fill="none" xmlns="http://www.w3.org/2000/svg">
<path d="M6.1062 12.3749H5.7937C3.2937 12.3749 2.0437 11.7499 2.0437 8.62494V5.49994C2.0437 2.99994 3.2937 1.74994 5.7937 1.74994H10.7937C13.2937 1.74994 14.5437 2.99994 14.5437 5.49994V8.62494C14.5437 11.1249 13.2937 12.3749 10.7937 12.3749H10.4812C10.2875 12.3749 10.1 12.4687 9.9812 12.6249L9.0437 13.8749C8.6312 14.4249 7.9562 14.4249 7.5437 13.8749L6.6062 12.6249C6.5062 12.4874 6.27495 12.3749 6.1062 12.3749Z" stroke="#0E0E0E" stroke-width="0.803571" stroke-miterlimit="10" stroke-linecap="round" stroke-linejoin="round"/>
<path d="M10.7915 7.375H10.7971" stroke="#0E0E0E" stroke-width="1.07143" stroke-linecap="round" stroke-linejoin="round"/>
<path d="M8.29088 7.375H8.29649" stroke="#0E0E0E" stroke-width="1.07143" stroke-linecap="round" stroke-linejoin="round"/>
<path d="M5.79027 7.375H5.79588" stroke="#0E0E0E" stroke-width="1.07143" stroke-linecap="round" stroke-linejoin="round"/>
</svg>
