<svg width="40" height="40" viewBox="0 0 40 40" fill="none" xmlns="http://www.w3.org/2000/svg">
<circle cx="20" cy="20" r="19.8" fill="white" stroke="#BBBBBB" stroke-width="0.4"/>
<g clip-path="url(#clip0_122_1875)">
<path d="M27.6262 20.1497C27.6262 19.4942 27.573 19.0158 27.4578 18.5197H19.9725V21.4784H24.3662C24.2777 22.2137 23.7993 23.321 22.7363 24.065L22.7214 24.1641L25.0881 25.9975L25.2521 26.0139C26.758 24.6231 27.6262 22.5768 27.6262 20.1497Z" fill="#4285F4"/>
<path d="M19.9725 27.945C22.1251 27.945 23.9322 27.2363 25.2521 26.0139L22.7363 24.065C22.0631 24.5345 21.1595 24.8623 19.9725 24.8623C17.8643 24.8623 16.0749 23.4716 15.437 21.5493L15.3435 21.5573L12.8826 23.4618L12.8504 23.5513C14.1614 26.1556 16.8544 27.945 19.9725 27.945Z" fill="#34A853"/>
<path d="M15.437 21.5493C15.2687 21.0532 15.1713 20.5217 15.1713 19.9725C15.1713 19.4233 15.2687 18.8918 15.4282 18.3957L15.4237 18.2901L12.9319 16.3549L12.8504 16.3937C12.31 17.4744 12 18.6881 12 19.9725C12 21.257 12.31 22.4705 12.8504 23.5513L15.437 21.5493Z" fill="#FBBC05"/>
<path d="M19.9725 15.0827C21.4696 15.0827 22.4794 15.7293 23.0552 16.2697L25.3052 14.0729C23.9234 12.7884 22.1251 12 19.9725 12C16.8544 12 14.1614 13.7894 12.8504 16.3937L15.4282 18.3957C16.0749 16.4735 17.8643 15.0827 19.9725 15.0827Z" fill="#EB4335"/>
</g>
<defs>
<clipPath id="clip0_122_1875">
<rect width="16" height="16" fill="white" transform="translate(12 12)"/>
</clipPath>
</defs>
</svg>
