<svg width="15" height="14" viewBox="0 0 15 14" fill="none" xmlns="http://www.w3.org/2000/svg">
<path d="M4.24998 6.34996L6.84996 0.5C7.36713 0.5 7.86312 0.705445 8.22881 1.07114C8.59451 1.43683 8.79995 1.93282 8.79995 2.44999V5.04997H12.4789C12.6674 5.04784 12.854 5.0867 13.0259 5.16386C13.1979 5.24103 13.351 5.35465 13.4746 5.49685C13.5983 5.63906 13.6895 5.80645 13.7421 5.98743C13.7946 6.16841 13.8072 6.35864 13.7789 6.54496L12.8819 12.3949C12.8349 12.7049 12.6775 12.9875 12.4386 13.1905C12.1997 13.3936 11.8954 13.5035 11.5819 13.4999H4.24998M4.24998 6.34996V13.4999M4.24998 6.34996H2.29999C1.95521 6.34996 1.62455 6.48693 1.38076 6.73072C1.13696 6.97452 1 7.30518 1 7.64995V12.1999C1 12.5447 1.13696 12.8754 1.38076 13.1192C1.62455 13.363 1.95521 13.4999 2.29999 13.4999H4.24998" stroke="black" stroke-width="0.8" stroke-linecap="round" stroke-linejoin="round"/>
</svg>
