<svg width="18" height="17" viewBox="0 0 18 17" fill="none" xmlns="http://www.w3.org/2000/svg">
<path d="M15.9515 1L14.372 2.5795M14.372 2.5795L16.7412 4.94875L13.9771 7.71288L11.6079 5.34363M14.372 2.5795L11.6079 5.34363M8.36199 8.58951C8.76977 8.99186 9.09393 9.4709 9.31582 9.99905C9.5377 10.5272 9.65292 11.094 9.65484 11.6669C9.65675 12.2397 9.54534 12.8073 9.327 13.3369C9.10866 13.8666 8.78771 14.3478 8.38264 14.7528C7.97756 15.1579 7.49636 15.4789 6.96674 15.6972C6.43712 15.9155 5.86954 16.027 5.29668 16.025C4.72382 16.0231 4.157 15.9079 3.62885 15.686C3.1007 15.4641 2.62166 15.14 2.21931 14.7322C1.42808 13.913 0.990268 12.8158 1.00016 11.6769C1.01006 10.538 1.46688 9.44855 2.27222 8.64321C3.07756 7.83786 4.167 7.38105 5.30589 7.37115C6.44477 7.36126 7.54198 7.79907 8.3612 8.5903L8.36199 8.58951ZM8.36199 8.58951L11.6079 5.34363" stroke="black" stroke-width="1.5" stroke-linecap="round" stroke-linejoin="round"/>
</svg>
