<svg width="19" height="21" viewBox="0 0 19 21" fill="none" xmlns="http://www.w3.org/2000/svg">
<path opacity="0.3" fill-rule="evenodd" clip-rule="evenodd" d="M9.50048 10.4228C12.3787 10.4228 14.7119 8.08959 14.7119 5.21141C14.7119 2.33323 12.3787 0 9.50048 0C6.6223 0 4.28908 2.33323 4.28908 5.21141C4.28908 8.08959 6.6223 10.4228 9.50048 10.4228ZM17.8149 17.1228C18.2672 18.2148 18.5 19.3851 18.5 20.567H9.5L0.5 20.567C0.5 19.3851 0.732792 18.2148 1.18508 17.1228C1.63738 16.0309 2.30031 15.0388 3.13604 14.203C3.97177 13.3673 4.96392 12.7044 6.05585 12.2521C7.14778 11.7998 8.3181 11.567 9.5 11.567C10.6819 11.567 11.8522 11.7998 12.9442 12.2521C14.0361 12.7044 15.0282 13.3673 15.864 14.203C16.6997 15.0388 17.3626 16.0309 17.8149 17.1228Z" fill="#475065"/>
</svg>
